<?xml version="1.0" encoding="UTF-8"?>
<svg width="56px" height="56px" viewBox="0 0 56 56" version="1.1" xmlns="http://www.w3.org/2000/svg" xmlns:xlink="http://www.w3.org/1999/xlink">
    <title>Untitled</title>
    <g id="Page-1" stroke="none" stroke-width="1" fill="none" fill-rule="evenodd">
        <g id="close" fill-rule="nonzero">
            <circle id="Oval" fill="#E24C4B" cx="28" cy="28" r="28"></circle>
            <path d="M56,27.9297467 C56,43.3684107 43.3684418,56 27.9298159,56 C18.9825033,56 11.0877795,51.9649227 6,45.4737167 C10.7368343,49.3333827 16.8772025,51.6141 23.5438034,51.6141 C38.9824293,51.6141 51.6139875,38.9825107 51.6139875,23.5438467 C51.6139875,16.8772293 49.3332758,10.736846 45.4736193,6 C51.9649326,11.0875453 56,18.9822886 56,27.9297467 Z" id="Path" fill="#B33736"></path>
            <path d="M42.1580938,42.1580938 C41.0355522,43.2806354 39.1644741,43.2806354 38.0419325,42.1580938 L28.5,32.6161613 L18.9580675,42.1580938 C17.8355259,43.2806354 15.9644478,43.2806354 14.8419062,42.1580938 C13.7193646,41.0355522 13.7193646,39.1644741 14.8419062,38.0419325 L24.3838387,28.5 L14.8419062,18.9580675 C13.7193646,17.8355259 13.7193646,15.9644478 14.8419062,14.8419062 C15.9644478,13.7193646 17.8355259,13.7193646 18.9580675,14.8419062 L28.5,24.3838387 L38.0419325,14.8419062 C39.1644741,13.7193646 41.0355522,13.7193646 42.1580938,14.8419062 C43.2806354,15.9644478 43.2806354,17.8355259 42.1580938,18.9580675 L32.6161613,28.5 L42.1580938,38.0419325 C43.2806354,39.1644741 43.2806354,41.0354206 42.1580938,42.1580938 Z" id="Path" fill="#FFFFFF"></path>
        </g>
    </g>
</svg>